<svg width="1600" height="640" viewBox="0 0 1600 640" xmlns="http://www.w3.org/2000/svg">
  <defs>
    <linearGradient id="p" x1="0" y1="0" x2="1" y2="0">
      <stop offset="0%" stop-color="#4F46E5"/>
      <stop offset="100%" stop-color="#7C3AED"/>
    </linearGradient>
    <marker id="arrow" viewBox="0 0 10 10" refX="8" refY="5" markerWidth="8" markerHeight="8" orient="auto-start-reverse">
      <path d="M 0 0 L 10 5 L 0 10 z" fill="#64748B"/>
    </marker>
  </defs>
  <rect width="1600" height="640" fill="#FFFFFF"/>
  <text x="800" y="90" text-anchor="middle" font-family="Inter, system-ui" font-size="42" font-weight="700" fill="#0B1220">Automatiza tus procesos en días, no en meses</text>
  <g font-family="Inter, system-ui" font-size="20">
    <rect x="160" y="220" width="260" height="120" rx="16" fill="url(#p)"/><text x="290" y="290" text-anchor="middle" fill="white" font-weight="700">WhatsApp</text>
    <rect x="520" y="220" width="260" height="120" rx="16" fill="#EEF2FF" stroke="#4F46E5" stroke-width="2"/><text x="650" y="290" text-anchor="middle" fill="#0B1220" font-weight="600">Google Sheets</text>
    <rect x="880" y="220" width="260" height="120" rx="16" fill="#ECFEFF" stroke="#06B6D4" stroke-width="2"/><text x="1010" y="290" text-anchor="middle" fill="#0B1220" font-weight="600">Confirmación</text>
    <rect x="1240" y="220" width="260" height="120" rx="16" fill="#F0FDF4" stroke="#10B981" stroke-width="2"/><text x="1370" y="290" text-anchor="middle" fill="#0B1220" font-weight="700">Email / PDF</text>
  </g>
  <line x1="420" y1="280" x2="520" y2="280" stroke="#64748B" stroke-width="3" marker-end="url(#arrow)"/>
  <line x1="780" y1="280" x2="880" y2="280" stroke="#64748B" stroke-width="3" marker-end="url(#arrow)"/>
  <line x1="1140" y1="280" x2="1240" y2="280" stroke="#64748B" stroke-width="3" marker-end="url(#arrow)"/>
  <g font-family="Inter, system-ui" font-size="18" fill="#64748B">
    <text x="220" y="380">Pedido del cliente</text>
    <text x="560" y="380">Guardado automático</text>
    <text x="930" y="380">Mensaje de confirmación</text>
    <text x="1300" y="380">Documento o notificación</text>
  </g>
</svg>